<svg width="32" height="32" viewBox="0 0 32 32" fill="none" xmlns="http://www.w3.org/2000/svg">
  <rect width="32" height="32" rx="6" fill="url(#gradient)"/>
  <path d="M20.5 13.5C20.5 11.567 19.433 10 17.5 10V7H15.5V10H14V7H12V10H8V12H9.5V20H8V22H12V25H14V22H15.5V25H17.5V22C19.433 22 20.5 20.433 20.5 18.5C20.5 17.2 19.9 16.1 19 15.5C19.6 14.8 20 14 20.5 13.5ZM15.5 12H17.5C18.33 12 19 12.67 19 13.5C19 14.33 18.33 15 17.5 15H15.5V12ZM17.5 20H15.5V17H17.5C18.33 17 19 17.67 19 18.5C19 19.33 18.33 20 17.5 20Z" fill="white"/>
  <defs>
    <linearGradient id="gradient" x1="0" y1="0" x2="32" y2="32" gradientUnits="userSpaceOnUse">
      <stop stop-color="#FB923C"/>
      <stop offset="1" stop-color="#EA580C"/>
    </linearGradient>
  </defs>
</svg>
